<svg width="38" height="9" viewBox="0 0 38 9" fill="none" xmlns="http://www.w3.org/2000/svg">
<path d="M0.71733 8V0.727273H3.50142C4.02699 0.727273 4.46378 0.810132 4.81179 0.975852C5.16217 1.1392 5.42377 1.36293 5.59659 1.64702C5.77178 1.93111 5.85938 2.25308 5.85938 2.61293C5.85938 2.90885 5.80256 3.16217 5.68892 3.37287C5.57528 3.5812 5.42259 3.75047 5.23082 3.88068C5.03906 4.01089 4.82481 4.1044 4.58807 4.16122V4.23224C4.84612 4.24645 5.09351 4.32576 5.33026 4.47017C5.56937 4.61222 5.76468 4.81345 5.91619 5.07386C6.06771 5.33428 6.14347 5.64915 6.14347 6.01847C6.14347 6.39489 6.05232 6.73343 5.87003 7.03409C5.68774 7.33239 5.41312 7.56795 5.04616 7.74077C4.67921 7.91359 4.21757 8 3.66122 8H0.71733ZM2.0348 6.89915H3.4517C3.92992 6.89915 4.27438 6.808 4.48509 6.62571C4.69815 6.44105 4.80469 6.20431 4.80469 5.91548C4.80469 5.70005 4.75142 5.50592 4.64489 5.3331C4.53835 5.15791 4.38684 5.0206 4.19034 4.92116C3.99384 4.81937 3.75947 4.76847 3.48722 4.76847H2.0348V6.89915ZM2.0348 3.82031H3.33807C3.56534 3.82031 3.77012 3.77888 3.95241 3.69602C4.13471 3.6108 4.27794 3.49124 4.3821 3.33736C4.48864 3.18111 4.5419 2.99645 4.5419 2.78338C4.5419 2.50166 4.44247 2.26965 4.24361 2.08736C4.04711 1.90507 3.75473 1.81392 3.36648 1.81392H2.0348V3.82031ZM10.5389 3.83452V4.89276H7.26474V3.83452H10.5389ZM11.9478 8V0.727273H13.2653V4.06889H13.354L16.1914 0.727273H17.8001L14.9876 3.99077L17.8249 8H16.2411L14.0714 4.8821L13.2653 5.83381V8H11.9478ZM19.0004 8V2.54545H20.2859V8H19.0004ZM19.6467 1.77131C19.4431 1.77131 19.2679 1.70384 19.1211 1.56889C18.9743 1.43158 18.9009 1.26705 18.9009 1.07528C18.9009 0.881155 18.9743 0.716619 19.1211 0.581676C19.2679 0.444365 19.4431 0.37571 19.6467 0.37571C19.8526 0.37571 20.0278 0.444365 20.1722 0.581676C20.319 0.716619 20.3924 0.881155 20.3924 1.07528C20.3924 1.26705 20.319 1.43158 20.1722 1.56889C20.0278 1.70384 19.8526 1.77131 19.6467 1.77131ZM23.987 8.10653C23.4425 8.10653 22.975 7.98698 22.5843 7.74787C22.1961 7.50876 21.8966 7.1785 21.6859 6.7571C21.4776 6.33333 21.3734 5.84564 21.3734 5.29403C21.3734 4.74006 21.4799 4.25118 21.693 3.82741C21.9061 3.40128 22.2067 3.06984 22.595 2.8331C22.9856 2.59399 23.4473 2.47443 23.9799 2.47443C24.4226 2.47443 24.8145 2.55611 25.1554 2.71946C25.4986 2.88045 25.7721 3.1089 25.9757 3.40483C26.1793 3.69839 26.2953 4.04167 26.3237 4.43466H25.095C25.0453 4.17187 24.9269 3.95289 24.7399 3.7777C24.5552 3.60014 24.3078 3.51136 23.9977 3.51136C23.7349 3.51136 23.5041 3.58239 23.3052 3.72443C23.1064 3.86411 22.9513 4.06534 22.84 4.32812C22.7311 4.59091 22.6767 4.90578 22.6767 5.27273C22.6767 5.64441 22.7311 5.96402 22.84 6.23153C22.9489 6.49669 23.1016 6.70147 23.2981 6.84588C23.497 6.98793 23.7302 7.05895 23.9977 7.05895C24.1871 7.05895 24.3564 7.02344 24.5055 6.95241C24.657 6.87902 24.7837 6.77367 24.8855 6.63636C24.9873 6.49905 25.0571 6.33215 25.095 6.13565H26.3237C26.2929 6.52154 26.1793 6.86364 25.9828 7.16193C25.7863 7.45786 25.5188 7.68987 25.1802 7.85795C24.8417 8.02367 24.444 8.10653 23.987 8.10653ZM28.5511 6.28835L28.5476 4.73651H28.7536L30.7138 2.54545H32.2159L29.8047 5.23011H29.5384L28.5511 6.28835ZM27.3793 8V0.727273H28.6648V8H27.3793ZM30.8026 8L29.027 5.51776L29.8935 4.61222L32.3402 8H30.8026ZM37.3837 3.98722L36.2118 4.11506C36.1787 3.99669 36.1207 3.88542 36.0378 3.78125C35.9573 3.67708 35.8484 3.59304 35.7111 3.52912C35.5738 3.4652 35.4057 3.43324 35.2069 3.43324C34.9393 3.43324 34.7144 3.49124 34.5321 3.60724C34.3522 3.72325 34.2634 3.87358 34.2658 4.05824C34.2634 4.21686 34.3214 4.34588 34.4398 4.44531C34.5605 4.54474 34.7594 4.62642 35.0364 4.69034L35.9668 4.8892C36.4829 5.00047 36.8664 5.17685 37.1174 5.41832C37.3707 5.6598 37.4985 5.97585 37.5009 6.36648C37.4985 6.70975 37.3979 7.01278 37.199 7.27557C37.0025 7.53598 36.7291 7.73958 36.3787 7.88636C36.0283 8.03314 35.6259 8.10653 35.1713 8.10653C34.5037 8.10653 33.9663 7.96686 33.5591 7.6875C33.1519 7.40578 32.9093 7.01397 32.8311 6.51207L34.0847 6.39134C34.1415 6.63755 34.2623 6.82339 34.4469 6.94886C34.6316 7.07434 34.8719 7.13707 35.1678 7.13707C35.4732 7.13707 35.7182 7.07434 35.9029 6.94886C36.0899 6.82339 36.1834 6.66832 36.1834 6.48366C36.1834 6.32741 36.123 6.19839 36.0023 6.09659C35.8839 5.99479 35.6993 5.91667 35.4483 5.86222L34.5179 5.6669C33.9947 5.558 33.6077 5.37453 33.3567 5.11648C33.1058 4.85606 32.9815 4.52699 32.9838 4.12926C32.9815 3.79309 33.0726 3.50189 33.2573 3.25568C33.4443 3.0071 33.7035 2.81534 34.035 2.6804C34.3688 2.54309 34.7535 2.47443 35.1891 2.47443C35.8283 2.47443 36.3314 2.61056 36.6983 2.88281C37.0676 3.15507 37.2961 3.5232 37.3837 3.98722Z" fill="white"/>
</svg>
